<svg xmlns="http://www.w3.org/2000/svg" viewBox="0 0 200 200">
  <circle cx="100" cy="102" r="80" fill="#F6F1DE"/>
  <ellipse cx="100" cy="164" rx="52" ry="8" fill="#E3DBBE"/>
  <ellipse cx="96" cy="112" rx="52" ry="44" fill="#D8C878"/>
  <path d="M60 88 Q76 76 96 76 Q120 76 132 90 M50 108 Q52 92 62 84 M144 106 Q142 92 130 84 M56 132 Q48 122 48 110 M138 130 Q148 122 148 110 M72 148 Q60 142 54 132 M122 148 Q134 142 140 132" fill="none" stroke="#C2B25E" stroke-width="3" stroke-linecap="round"/>
  <path d="M74 96 L96 76 M96 118 L96 76 M120 96 L96 76 M74 96 L74 128 M120 96 L120 128 M74 128 L96 150 M120 128 L96 150 M96 118 L74 96 M96 118 L120 96 M96 118 L74 128 M96 118 L120 128" fill="none" stroke="#C2B25E" stroke-width="2.4" stroke-linecap="round" opacity=".8"/>
  <path d="M96 68 Q94 56 104 50" fill="none" stroke="#8A9648" stroke-width="5" stroke-linecap="round"/>
  <ellipse cx="150" cy="130 " rx="22" ry="16" fill="#F2A54A"/>
  <path d="M132 122 Q150 112 168 122" fill="none" stroke="#E08A2E" stroke-width="4" stroke-linecap="round"/>
  <circle cx="86" cy="110" r="6.6" fill="#FFFFFF"/>
  <circle cx="108" cy="110" r="6.6" fill="#FFFFFF"/>
  <circle cx="87.5" cy="111.5" r="3.2" fill="#333333"/>
  <circle cx="109.5" cy="111.5" r="3.2" fill="#333333"/>
  <path d="M91 124 Q97 129 103 124" fill="none" stroke="#6B5D1E" stroke-width="2.8" stroke-linecap="round"/>
  <circle cx="74" cy="118" r="4.6" fill="#F9CDD1"/>
  <circle cx="120" cy="118" r="4.6" fill="#F9CDD1"/>
</svg>
