<svg xmlns="http://www.w3.org/2000/svg" viewBox="0 0 200 200">
  <circle cx="100" cy="102" r="80" fill="#F3ECE8"/>
  <path d="M62 70 C 44 64, 36 44, 44 30 C 50 50, 62 56, 76 58 Z" fill="#FFF3E0"/>
  <path d="M138 70 C 156 64, 164 44, 156 30 C 150 50, 138 56, 124 58 Z" fill="#FFF3E0"/>
  <ellipse cx="54" cy="84" rx="18" ry="10" fill="#8D6E63" transform="rotate(-20 54 84)"/>
  <ellipse cx="146" cy="84" rx="18" ry="10" fill="#8D6E63" transform="rotate(20 146 84)"/>
  <path d="M66 70 C 66 52, 134 52, 134 70 L 128 126 C 126 150, 74 150, 72 126 Z" fill="#A1887F"/>
  <ellipse cx="100" cy="136" rx="30" ry="20" fill="#E8CFC4"/>
  <circle cx="90" cy="136" r="4" fill="#8D6E63"/>
  <circle cx="110" cy="136" r="4" fill="#8D6E63"/>
  <circle cx="84" cy="92" r="5" fill="#3B3C42"/>
  <circle cx="116" cy="92" r="5" fill="#3B3C42"/>
</svg>
